<?xml version="1.0" standalone="no"?>
<!DOCTYPE svg PUBLIC "-//W3C//DTD SVG 20010904//EN"
 "http://www.w3.org/TR/2001/REC-SVG-20010904/DTD/svg10.dtd">
<svg version="1.0" xmlns="http://www.w3.org/2000/svg"
 width="707.000000pt" height="707.000000pt" viewBox="0 0 707.000000 707.000000"
 preserveAspectRatio="xMidYMid meet">
<metadata>
Created by potrace 1.14, written by Peter Selinger 2001-2017
</metadata>
<g transform="translate(0.000000,707.000000) scale(0.100000,-0.100000)"
fill="#000000" stroke="none">
<path d="M489 4462 l-25 -3 0 -599 c1 -329 4 -602 8 -605 6 -6 279 -10 406 -6
21 1 23 5 20 49 l-3 47 -160 0 c-88 0 -162 3 -165 7 -7 9 -6 996 1 1003 5 4
724 8 1112 5 l68 0 -3 -95 c-2 -52 -1 -95 2 -96 3 0 26 -3 53 -5 42 -4 47 -2
47 16 3 133 0 273 -4 278 -6 5 -1309 10 -1357 4z"/>
<path d="M2379 4462 c0 -4 -1 -352 -1 -774 l-1 -768 -953 0 c-577 0 -955 -4
-959 -9 -3 -5 -1 -12 5 -16 7 -4 609 -7 975 -4 6 0 217 -1 470 -3 l460 -3 5
-38 c6 -43 24 -50 26 -10 1 16 2 33 3 40 1 10 405 13 1839 13 1010 1 1844 1
1852 1 145 -5 227 5 209 24 -3 3 -882 6 -1954 7 l-1949 3 0 767 c0 628 -2 768
-13 772 -7 3 -13 2 -14 -2z"/>
<path d="M2548 4451 c-3 -14 -2 -1106 1 -1152 1 -15 18 -17 134 -16 l134 1 -1
348 c-1 191 2 348 7 348 9 0 35 -26 67 -69 14 -18 36 -45 50 -61 39 -44 62
-72 96 -116 44 -57 76 -94 97 -113 9 -8 17 -19 17 -23 0 -4 18 -26 40 -50 22
-24 40 -47 40 -52 0 -5 8 -16 18 -25 10 -9 36 -38 57 -66 40 -49 61 -74 91
-107 13 -13 34 -17 107 -16 51 0 101 1 112 3 20 4 20 11 18 577 0 315 -2 580
-2 588 -1 14 -21 16 -133 15 -126 0 -133 -1 -135 -20 -2 -24 -3 -64 -3 -87 0
-10 0 -25 0 -33 0 -8 0 -22 0 -30 0 -8 0 -21 0 -27 0 -7 1 -24 3 -38 2 -14 0
-35 -5 -47 -4 -13 -4 -23 0 -23 5 0 7 -19 5 -42 -2 -24 -3 -49 -3 -55 0 -21 0
-42 -1 -55 0 -7 2 -25 4 -40 2 -16 0 -28 -5 -28 -5 0 -6 -6 -1 -12 10 -16 10
-36 1 -70 -4 -19 -3 -28 5 -28 8 0 7 -3 -2 -9 -8 -5 -9 -11 -3 -15 6 -3 8 -16
5 -27 -6 -20 -8 -20 -36 12 -16 19 -41 50 -56 69 -27 35 -66 83 -88 106 -7 7
-13 17 -13 23 0 6 -4 11 -9 11 -4 0 -36 36 -71 80 -35 44 -67 80 -72 80 -5 0
-6 5 -3 10 3 6 2 10 -4 10 -5 0 -13 9 -16 20 -3 11 -12 20 -20 20 -8 0 -16 8
-19 18 -3 9 -20 33 -36 52 -17 19 -41 48 -53 63 -12 16 -39 47 -59 70 l-36 42
-111 1 c-91 0 -110 -3 -113 -15z"/>
<path d="M3916 4461 c-2 -3 -3 -269 -2 -591 l1 -585 325 1 c344 2 390 3 390
13 0 4 11 8 25 9 36 3 49 6 55 14 3 4 15 9 25 11 11 1 27 7 35 12 8 5 18 10
21 10 4 0 30 15 59 34 71 46 151 129 180 187 14 27 29 52 35 56 5 4 6 8 1 8
-5 0 -3 7 4 15 7 8 10 15 6 15 -3 0 -2 10 3 23 30 78 31 324 2 361 -7 9 -19
45 -25 76 -4 17 -80 123 -110 153 -67 68 -208 146 -290 162 -12 2 -21 4 -21 5
0 11 -713 21 -719 11z m632 -234 c7 -5 15 -7 19 -4 3 4 12 2 20 -4 7 -6 13 -9
13 -5 0 3 18 -5 40 -19 22 -14 42 -25 45 -25 3 0 22 -16 42 -35 20 -19 32 -35
28 -35 -4 0 1 -8 12 -17 32 -29 60 -135 58 -216 -3 -79 -34 -184 -62 -204 -9
-7 -13 -13 -7 -13 17 0 -79 -79 -121 -100 -48 -23 -70 -29 -135 -36 -83 -9
-122 -10 -126 -2 -3 5 -10 5 -16 2 -9 -6 -98 -8 -155 -5 -10 1 -13 81 -13 367
l0 365 173 -2 c100 -1 177 -6 185 -12z"/>
<path d="M5315 4462 c-3 -3 -5 -269 -5 -592 l0 -587 433 1 432 1 0 110 0 110
-275 2 c-151 0 -284 1 -295 2 -20 1 -20 8 -20 479 l0 477 -133 1 c-72 0 -134
-2 -137 -4z"/>
<path d="M956 4080 c-2 -3 -3 -106 -2 -230 l1 -225 243 -1 c133 -1 242 1 243
5 7 50 2 444 -6 449 -12 8 -475 10 -479 2z"/>
<path d="M1539 4065 c-1 -24 -1 -415 0 -432 1 -8 64 -11 244 -10 l242 2 2 230
3 230 -245 0 c-239 0 -245 0 -246 -20z"/>
<path d="M956 3540 c-2 -3 -3 -106 -2 -230 l1 -225 243 -2 c133 -1 242 1 243
5 4 29 3 452 -1 453 -16 4 -482 3 -484 -1z"/>
<path d="M1567 3538 c-9 -4 -12 -76 -10 -270 0 -144 2 -269 2 -275 1 -10 68
-13 299 -13 l297 0 0 280 c0 242 -2 280 -15 281 -72 5 -564 3 -573 -3z"/>
<path d="M2905 3155 c-22 -7 -35 -13 -30 -14 6 -1 4 -5 -4 -10 -17 -11 -5 -71
15 -71 8 0 31 -7 52 -16 34 -14 35 -17 19 -28 -19 -15 -67 -10 -67 7 0 6 -8 4
-17 -6 -23 -23 -6 -39 48 -43 55 -4 97 19 93 52 -2 21 -32 63 -41 57 -1 -2
-17 0 -33 4 -21 4 -30 11 -28 22 4 17 27 19 67 6 15 -4 21 -4 17 3 -3 6 0 13
6 15 10 4 10 6 0 6 -7 1 -10 6 -6 12 4 7 1 10 -7 7 -8 -3 -21 -2 -29 2 -8 4
-33 2 -55 -5z"/>
<path d="M3065 3161 c-3 -6 -10 -9 -15 -6 -14 9 -5 -142 10 -159 7 -9 21 -16
30 -16 10 0 20 -4 22 -8 6 -15 68 8 82 31 8 12 16 47 17 77 2 77 1 80 -21 80
-11 0 -20 -6 -21 -12 0 -7 -1 -35 -2 -63 -2 -57 -11 -75 -35 -75 -36 0 -45 17
-46 84 -2 65 -8 87 -21 67z"/>
<path d="M5016 3163 c-2 -2 -10 -6 -18 -7 -32 -7 -44 -18 -46 -45 -2 -33 8
-44 60 -60 39 -13 59 -40 30 -42 -30 -2 -57 3 -62 12 -8 11 -24 -3 -28 -23 -2
-12 4 -18 15 -19 10 0 29 -2 42 -5 14 -2 39 0 57 6 63 21 42 91 -31 104 -34 6
-39 11 -32 30 5 13 27 15 67 5 8 -2 14 2 13 9 -2 6 2 12 9 12 6 0 9 3 5 6 -8
8 -75 23 -81 17z"/>
<path d="M5274 3163 c-19 -4 -21 -10 -19 -61 2 -66 -18 -110 -41 -91 -8 6 -14
8 -14 3 0 -4 -6 0 -13 11 -8 10 -13 38 -12 66 2 55 -6 74 -29 66 -12 -5 -16
-21 -16 -71 0 -56 3 -69 25 -91 46 -45 127 -25 141 35 3 14 5 45 4 70 -1 25
-3 51 -3 58 0 6 -1 11 -1 11 -1 -1 -10 -4 -22 -6z"/>
<path d="M2569 3158 c-1 -2 -2 -42 -3 -90 -1 -88 5 -105 37 -93 11 5 12 18 7
173 0 10 -37 19 -41 10z"/>
<path d="M2659 3158 c-1 -2 -2 -41 -3 -87 -1 -61 3 -88 13 -99 12 -12 16 -11
25 5 5 10 9 35 7 56 -2 36 -2 38 18 25 12 -7 21 -16 21 -19 0 -13 54 -63 71
-66 17 -3 19 5 19 93 0 93 -1 95 -22 92 -20 -3 -23 -8 -22 -50 1 -27 -1 -48
-4 -48 -7 0 -82 84 -82 93 0 6 -38 11 -41 5z"/>
<path d="M3259 3157 c-5 -9 -5 -177 0 -178 3 0 14 -2 23 -4 10 -2 17 0 17 3
-7 48 38 60 61 17 8 -15 20 -23 31 -22 30 5 34 17 11 33 -12 8 -22 20 -22 26
0 6 3 8 7 5 12 -12 41 47 30 61 -5 6 -6 12 -1 12 4 0 -3 11 -15 24 -19 20 -33
24 -82 25 -32 0 -59 -1 -60 -2z m115 -53 c7 -19 -21 -44 -51 -44 -15 0 -23 3
-20 6 3 4 2 15 -3 25 -8 13 -6 20 6 27 21 12 61 4 68 -14z"/>
<path d="M3505 3140 c-3 -11 -11 -20 -16 -20 -6 0 -7 -4 -4 -10 3 -5 1 -10 -4
-10 -6 0 -10 -3 -9 -7 1 -5 -8 -30 -20 -57 -27 -60 -27 -61 -1 -63 13 -1 23 5
26 17 3 11 17 20 36 23 42 6 65 -2 72 -24 4 -10 15 -19 26 -19 22 0 23 8 7 47
-6 15 -11 31 -10 36 1 4 -2 7 -7 7 -5 0 -12 12 -15 26 -17 64 -67 98 -81 54z
m46 -68 c8 -20 5 -22 -24 -22 -21 0 -28 3 -19 9 8 4 13 11 13 15 -5 34 17 33
30 -2z"/>
<path d="M3659 3158 c-1 -2 -2 -44 -3 -93 -1 -88 -1 -91 21 -91 21 0 23 5 23
55 0 60 -3 62 62 -21 15 -18 36 -34 47 -35 20 -2 21 3 21 93 0 91 -1 94 -22
90 -19 -2 -23 -9 -23 -44 0 -22 -3 -43 -6 -46 -3 -3 -17 8 -31 24 -14 17 -24
30 -22 30 2 0 -4 9 -13 20 -14 16 -49 28 -54 18z"/>
<path d="M3906 3145 c-8 -8 -19 -15 -25 -15 -6 0 -10 -3 -9 -7 0 -5 -2 -16 -7
-26 -11 -26 3 -80 26 -101 39 -33 139 -30 139 4 0 27 -18 34 -44 17 -17 -12
-26 -13 -35 -4 -6 6 -11 7 -11 2 0 -12 -35 37 -36 50 0 6 4 16 9 23 5 6 6 12
1 13 -13 1 38 21 59 24 9 1 17 -2 17 -7 0 -13 38 -9 43 5 11 33 -96 52 -127
22z"/>
<path d="M4068 3079 c-4 -102 2 -109 80 -105 71 3 91 12 65 31 -12 9 -22 10
-30 4 -7 -7 -14 -6 -18 1 -5 8 -10 8 -20 0 -10 -8 -15 -8 -21 2 -19 30 -12 38
31 38 29 0 45 5 49 15 6 17 5 17 -42 19 -65 4 -63 39 3 42 49 2 52 3 52 18 0
10 -19 14 -73 15 l-72 2 -4 -82z"/>
<path d="M4355 3145 c-16 -8 -25 -14 -20 -15 6 0 5 -4 -2 -8 -18 -11 -24 -63
-12 -94 21 -51 109 -71 159 -38 13 9 12 12 -4 25 -16 12 -22 12 -28 2 -4 -6
-8 -8 -8 -4 0 4 -9 3 -19 -3 -16 -8 -24 -4 -45 21 -24 28 -25 32 -11 58 17 33
68 47 87 24 10 -12 14 -12 27 1 36 37 -60 60 -124 31z"/>
<path d="M4541 3133 c-43 -40 -47 -84 -11 -125 25 -28 34 -32 80 -32 45 0 56
4 76 28 82 94 -54 214 -145 129z m114 -32 c5 -9 10 -22 11 -30 3 -17 -25 -62
-35 -57 -4 3 -13 1 -21 -4 -10 -6 -21 -1 -37 16 -28 31 -29 44 -2 78 16 21 26
25 47 19 15 -3 31 -13 37 -22z"/>
<path d="M4747 3153 c-2 -5 -3 -46 -3 -93 1 -78 3 -85 21 -85 17 0 21 8 25 49
4 45 7 48 20 34 30 -32 50 -58 50 -67 0 -12 37 -24 49 -17 5 3 8 45 7 93 -1
81 -3 88 -22 91 -19 3 -21 -2 -20 -48 1 -27 -1 -50 -5 -50 -3 0 -25 23 -48 50
-39 46 -64 61 -74 43z"/>
<path d="M5347 3153 c-2 -5 -4 -46 -3 -93 l1 -85 45 -2 c59 -4 90 4 90 22 0
11 -11 14 -40 13 -22 -1 -43 1 -46 5 -4 3 -7 38 -7 77 0 60 -3 70 -18 70 -10
0 -20 -3 -22 -7z"/>
<path d="M5470 3141 c0 -13 7 -18 27 -17 27 1 28 0 29 -61 0 -35 -4 -63 -9
-63 -5 0 -4 -7 3 -15 7 -8 21 -15 31 -15 17 0 19 8 19 75 0 43 4 76 10 76 6 1
15 3 20 4 6 1 15 3 20 4 6 0 10 8 10 16 0 11 -17 14 -80 14 -70 0 -80 -2 -80
-18z"/>
<path d="M5728 3098 c-1 -35 -2 -77 0 -95 l3 -31 67 1 c56 2 67 5 70 20 3 13
-2 18 -15 17 -10 -1 -32 -2 -48 -1 l-31 1 1 63 c1 76 -2 87 -25 87 -15 0 -19
-10 -22 -62z"/>
<path d="M5857 3153 c-13 -13 -7 -33 11 -31 46 4 47 1 45 -77 -2 -73 -1 -75
22 -73 22 2 23 6 23 63 0 94 0 94 23 88 21 -6 42 13 33 29 -6 10 -148 11 -157
1z"/>
<path d="M6039 3148 c-1 -17 -2 -127 0 -155 1 -21 5 -22 71 -19 59 3 73 7 90
27 10 13 20 26 20 29 15 65 -2 105 -50 119 -51 15 -130 14 -131 -1z m111 -33
c24 -12 30 -22 30 -48 0 -33 -30 -64 -50 -52 -6 4 -10 2 -10 -3 0 -6 -8 -8
-18 -5 -14 3 -18 15 -17 56 0 47 6 60 33 66 2 1 16 -6 32 -14z"/>
<path d="M6243 3015 c-11 -9 -13 -14 -5 -15 7 0 11 -4 8 -9 -7 -11 22 -23 35
-15 14 8 11 41 -5 47 -8 3 -22 -1 -33 -8z"/>
<path d="M2979 2778 c-7 -14 -3 -236 4 -245 13 -18 37 -4 37 22 0 12 7 28 15
35 13 11 21 7 48 -23 32 -35 72 -52 72 -30 0 6 -15 27 -32 47 -18 19 -33 39
-33 44 0 4 14 21 30 37 17 16 30 32 30 37 0 10 -47 11 -52 1 -9 -20 -80 -77
-78 -63 1 8 2 43 1 78 -1 55 -3 62 -21 62 -11 0 -21 -1 -21 -2z"/>
<path d="M5281 2656 c0 -124 0 -126 22 -126 22 0 22 2 22 123 0 117 -1 122
-22 125 -21 3 -21 0 -22 -122z"/>
<path d="M503 2762 c-9 -6 -13 -41 -12 -123 1 -111 2 -115 23 -114 20 2 21 7
21 120 0 116 -5 134 -32 117z"/>
<path d="M2363 2761 c-8 -5 -11 -187 -5 -226 2 -9 35 -10 142 -5 58 2 88 67
51 107 -16 17 -18 23 -7 32 11 10 13 29 7 63 -4 25 -160 49 -188 29z m141 -53
c14 -23 0 -37 -39 -39 -56 -3 -62 0 -63 32 -1 30 0 30 45 27 30 -2 50 -9 57
-20z m11 -94 c26 -26 -3 -49 -62 -49 -47 0 -48 1 -51 33 l-3 32 50 0 c32 0 55
-6 66 -16z"/>
<path d="M3873 2760 c-34 -14 -44 -40 -27 -73 14 -27 14 -29 -10 -48 -29 -23
-35 -69 -12 -88 29 -24 77 -31 119 -16 27 9 45 11 53 4 7 -6 15 -4 23 5 9 11
9 16 1 21 -7 5 -9 20 -5 41 5 29 3 34 -13 34 -11 0 -23 -8 -27 -17 -6 -16 -8
-16 -26 6 -19 24 -19 24 1 43 54 51 -4 117 -77 88z m56 -34 c9 -11 8 -18 -4
-30 -22 -21 -32 -20 -40 4 -12 36 20 55 44 26z m7 -132 c27 -24 -29 -44 -67
-24 -23 13 -24 28 -2 52 17 19 18 19 69 -28z"/>
<path d="M4225 2758 c-72 -23 -98 -126 -47 -186 44 -53 145 -62 183 -16 19 24
-6 35 -45 19 -80 -32 -139 28 -111 112 11 35 76 51 119 30 31 -14 35 -14 40
-1 3 9 6 17 6 19 0 1 -15 10 -34 19 -38 18 -66 19 -111 4z"/>
<path d="M5399 2744 c-1 -2 -2 -9 -3 -15 0 -7 -9 -15 -19 -18 -24 -9 -24 -23
0 -32 14 -5 18 -17 18 -61 1 -77 30 -106 84 -87 29 11 22 34 -10 34 -22 0 -24
4 -27 56 -3 53 -2 56 20 55 30 -1 31 28 1 32 -14 2 -23 10 -23 21 0 14 -37 29
-41 15z"/>
<path d="M5990 2730 c0 -13 -7 -20 -20 -20 -18 0 -19 -3 -10 -20 6 -11 15 -18
21 -15 5 4 9 -20 9 -59 0 -62 2 -66 28 -79 36 -17 72 -11 72 13 0 15 -7 19
-27 17 -27 -2 -28 0 -30 51 -2 29 2 53 7 53 20 3 25 4 38 12 18 12 4 28 -21
25 -16 -2 -23 3 -25 20 -4 29 -42 31 -42 2z"/>
<path d="M872 2706 c-81 -28 -57 -106 33 -106 12 0 25 -6 28 -14 8 -20 -41
-30 -77 -17 -22 9 -28 8 -33 -5 -7 -19 12 -33 47 -35 88 -6 115 16 101 82 -1
6 -14 11 -63 24 -5 2 -15 3 -23 4 -17 1 -21 30 -5 32 6 1 16 2 23 3 6 1 22 -1
34 -5 15 -6 23 -3 27 8 8 19 9 17 -29 30 -21 7 -40 7 -63 -1z"/>
<path d="M1447 2713 c-3 -2 -11 -5 -19 -7 -7 -1 -21 -6 -31 -12 -16 -9 -16
-12 -3 -23 10 -8 21 -9 33 -3 22 11 49 8 69 -9 19 -16 11 -23 -29 -24 -49 -3
-75 -14 -82 -36 -14 -44 23 -80 75 -72 40 6 54 6 70 2 24 -6 27 121 3 150 -17
20 -76 44 -86 34z m51 -128 c-4 -24 -56 -34 -69 -13 -11 17 14 36 47 34 19 -1
24 -6 22 -21z"/>
<path d="M1694 2710 c-17 -4 -36 -10 -42 -14 -7 -4 -12 -2 -12 3 0 6 -8 11
-18 11 -17 0 -19 -10 -20 -82 -2 -82 8 -111 33 -102 9 4 13 20 11 52 -4 63 1
78 30 91 31 14 30 14 48 -5 11 -11 16 -34 16 -75 0 -57 1 -60 23 -57 22 3 25
21 18 125 -2 32 -49 61 -87 53z"/>
<path d="M2093 2706 c-48 -17 -67 -40 -67 -86 0 -49 25 -78 79 -90 48 -11 104
12 85 35 -8 10 -17 11 -39 2 -23 -9 -34 -7 -55 7 -15 9 -24 20 -22 25 3 4 35
7 71 6 64 -2 65 -2 65 24 -1 55 -63 96 -117 77z m61 -41 c26 -20 14 -29 -40
-30 -49 -1 -61 19 -21 35 31 12 39 12 61 -5z"/>
<path d="M2819 2710 c-66 -18 -88 -55 -74 -119 14 -63 113 -87 161 -40 34 35
39 93 10 123 -28 31 -66 44 -97 36z m57 -51 c23 -19 17 -66 -10 -84 -47 -31
-97 15 -76 70 13 35 53 41 86 14z"/>
<path d="M3573 2703 c-32 -13 -35 -17 -35 -48 0 -8 0 -19 1 -23 2 -13 48 -32
76 -32 14 0 25 -4 25 -10 0 -5 1 -13 3 -17 3 -11 -64 -12 -85 -2 -11 6 -18 4
-22 -8 -7 -17 8 -32 34 -34 8 0 28 -2 43 -3 65 -6 106 73 50 95 -30 12 -50 17
-70 18 -15 1 -18 30 -3 32 6 1 16 2 23 3 6 1 22 -1 34 -5 15 -6 23 -3 27 8 8
20 9 19 -34 30 -25 7 -44 6 -67 -4z"/>
<path d="M4702 2704 c-18 -7 -32 -9 -32 -4 0 6 -9 10 -20 10 -19 0 -20 -7 -20
-89 0 -69 3 -90 15 -94 21 -9 29 11 31 71 1 60 11 75 49 75 36 0 45 -17 45
-84 0 -41 4 -58 15 -62 8 -4 18 -1 22 5 10 18 5 139 -7 154 -21 24 -64 33 -98
18z"/>
<path d="M5049 2712 c-7 -38 -5 -123 3 -144 12 -31 58 -51 91 -39 12 5 36 6
53 4 l31 -5 -1 91 c-1 86 -2 92 -21 89 -17 -3 -21 -12 -23 -58 -3 -57 -22 -90
-52 -90 -30 0 -43 27 -41 89 1 51 -2 59 -19 64 -11 3 -21 2 -21 -1z"/>
<path d="M599 2673 c-2 -38 -2 -75 0 -124 1 -22 5 -25 24 -22 20 4 22 10 21
61 -2 65 18 93 61 84 28 -5 28 -5 30 -81 1 -33 7 -56 16 -62 24 -14 33 9 31
79 -2 56 -6 70 -25 84 -25 20 -69 23 -98 8 -13 -7 -19 -7 -19 0 0 5 -9 10 -20
10 -16 0 -20 -7 -21 -37z"/>
<path d="M1011 2648 c1 -35 7 -73 12 -86 12 -25 62 -43 92 -32 11 4 34 5 50 3
l30 -5 0 89 c-1 83 -3 88 -23 91 -21 3 -22 -1 -22 -56 0 -62 -12 -83 -50 -89
-28 -4 -42 22 -44 85 -2 51 -4 57 -24 60 -22 3 -23 1 -21 -60z"/>
<path d="M1249 2706 c-2 -2 -3 -45 -1 -94 3 -83 5 -89 23 -85 19 5 23 14 19
47 -1 10 1 34 5 53 5 27 12 35 36 40 30 6 39 30 15 39 -8 3 -24 1 -35 -6 -14
-7 -21 -7 -21 0 0 10 -32 14 -41 6z"/>
<path d="M1857 2685 c-15 -14 -27 -29 -28 -33 0 -4 -2 -16 -4 -26 -8 -43 33
-90 86 -99 28 -5 89 17 89 32 0 18 -21 23 -50 11 -35 -15 -67 0 -76 34 -12 51
37 91 77 62 38 -26 68 3 32 30 -31 23 -95 17 -126 -11z"/>
<path d="M2613 2620 c-1 -86 0 -90 21 -90 20 0 22 5 23 55 1 59 14 85 44 85
12 0 19 7 19 20 0 22 -28 28 -47 9 -8 -8 -13 -8 -17 0 -4 6 -15 11 -24 11 -15
0 -18 -12 -19 -90z"/>
<path d="M3217 2699 c-9 -5 -24 -23 -32 -38 -19 -37 -4 -95 30 -117 34 -22
101 -22 123 -1 23 24 0 38 -38 24 -22 -8 -33 -7 -54 7 -38 24 -26 33 41 31 32
-1 63 0 70 2 23 8 -4 75 -37 93 -24 13 -80 12 -103 -1z m87 -34 c26 -20 13
-30 -40 -30 -45 -1 -49 2 -36 21 16 25 50 29 76 9z"/>
<path d="M3408 2703 c-7 -15 -3 -173 5 -173 4 0 14 0 22 0 10 0 15 16 17 63 3
59 4 62 33 72 21 7 29 15 27 28 -4 20 -15 21 -43 7 -13 -7 -19 -7 -19 0 0 11
-37 14 -42 3z"/>
<path d="M4445 2701 c-49 -21 -67 -82 -38 -131 30 -52 107 -59 154 -14 24 23
28 33 24 67 -2 22 -12 49 -23 59 -21 22 -86 32 -117 19z m97 -64 c8 -48 -33
-87 -75 -71 -37 14 -38 81 -1 102 26 14 72 -5 76 -31z"/>
<path d="M4866 2688 c-31 -44 -10 -77 54 -86 14 -2 32 -10 40 -18 15 -15 17
-14 -45 -19 -11 -1 -26 3 -33 9 -10 7 -16 5 -23 -5 -14 -22 -11 -26 19 -36 69
-23 135 8 125 59 -4 22 -13 28 -54 38 -55 14 -65 22 -44 40 11 9 22 9 46 1 18
-6 33 -11 34 -11 2 0 5 9 8 19 6 24 -10 31 -68 31 -34 0 -47 -5 -59 -22z"/>
<path d="M5545 2697 c-22 -17 -11 -40 15 -32 39 12 56 13 70 1 28 -21 19 -32
-26 -32 -57 0 -89 -27 -79 -67 5 -20 16 -29 42 -36 21 -6 43 -7 52 -2 9 5 29
7 44 4 l27 -5 0 75 c0 68 -2 76 -25 91 -30 19 -94 21 -120 3z m102 -100 c12
-12 -20 -37 -48 -37 -34 0 -44 13 -24 33 14 15 59 17 72 4z"/>
<path d="M5746 2700 c-6 -13 0 -170 7 -170 4 0 14 0 22 0 12 0 15 13 15 60 0
52 3 62 24 75 29 19 65 6 67 -23 2 -49 7 -117 8 -120 1 -1 9 2 20 7 27 15 25
129 -3 160 -21 24 -84 29 -104 9 -9 -9 -12 -9 -12 -1 0 11 -39 14 -44 3z"/>
<path d="M6130 2688 c-33 -36 -4 -87 50 -88 30 0 57 -16 47 -26 -12 -12 -39
-14 -74 -5 -25 7 -33 6 -38 -7 -6 -16 9 -31 35 -33 80 -8 128 19 116 64 -5 20
-16 27 -56 37 -52 12 -66 34 -30 45 10 3 29 1 40 -5 18 -10 24 -8 35 7 12 16
11 19 -8 25 -48 14 -96 8 -117 -14z"/>
</g>
</svg>
